<svg xmlns="http://www.w3.org/2000/svg" width="200" height="100" viewBox="250 400 1600 700">
  <defs>
    <style>
      .cls-1 {
        fill: #010000;
        fill-rule: evenodd;
      }
    </style>
  </defs>
  <path id="Chibuike" class="cls-1" d="M594.385,688.217h0c-6.864,17.741-19.207,33.879-47.365,33.879-42.153,0-57.8-37.756-57.8-73.6h0c0-36.941,16.467-73.566,56.75-73.566,28.88,0,42.044,15.006,48.584,34.9h24.215c-5.387-30.526-28.749-55.085-71.826-55.085-55.5,0-83.08,44.87-83.08,94.482h0c0,51.619,27.546,93.061,82.167,93.061,41.452,0,64.557-23.072,72.662-54.069H594.385Zm54.568-140.934V740h22.978V667.228c0-27.732,10.593-43.558,34.536-43.558,19.37,0,28.951,12.561,28.951,35.2V740H758.3V655.039c0-39.616-23.494-51.3-44.827-51.3-22.635,0-34.754,11.085-41.546,22.783V547.283H648.953ZM797.526,740h22.979V606.892H797.526V740Zm0-164h22.979V547.283H797.526V576Zm62.213,119.3c0,14.869,0,29.832-.263,44.7h22.158a165.283,165.283,0,0,0,.9-17.577c6.732,12.918,17.844,20.727,39.151,20.727,37.679,0,57.968-31.953,57.968-72.4h0c0-39.5-21.071-67-54.463-67-24.237,0-36.449,10.774-42.47,22.133V547.283H859.739V695.3Zm58.935,28.449c-28.273,0-37.116-22.132-37.116-49.853h0c0-31.692,9.969-50.658,38.226-50.658,23.078,0,36.193,19.234,36.193,47.956h0C955.977,703.65,942.212,723.748,918.674,723.748ZM1116.44,606.892h-22.97v69.414c0,33.261-9.45,46.824-33.92,46.824-22.08,0-27.56-16.128-27.56-33.617V606.892h-22.81V694.43c0,37.559,21.54,48.72,43.98,48.72,20.94,0,33.77-8.362,40.31-23.106,0.09,8.346.35,16.451,0.88,19.956h22.36c-0.1-7.869-.27-25.834-0.27-38.789V606.892ZM1155.84,740h22.97V606.892h-22.97V740Zm0-164h22.97V547.283h-22.97V576Zm85.19-28.716h-22.98V740h22.98v-47.2l20.02-19.327L1305.79,740h26.87l-55.84-81.243,50.11-51.865h-27.39c-18.05,19.633-47.27,50.4-58.51,63.542h0V547.283Zm214.53,130.341a108.611,108.611,0,0,0,.36-11.041c0-28.393-14.07-62.841-57.01-62.841-40.46,0-60.4,31.544-60.4,71.126h0c0,34.267,17.07,68.282,58.92,68.282,36.47,0,50.76-22.755,55.99-39.8h-23.15c-4.26,9.74-11.08,20.585-32.13,20.585-22.6,0-36.22-19.234-36.39-46.31h93.81Zm-93.02-16.2h0c2.33-23.193,12.62-39.49,36.03-39.49,22.75,0,33.77,17.593,34.03,39.49h-70.06Z"/>
  <path id="_" data-name="{" class="cls-1" d="M359.242,759.761q28.075,0,43.436-12t15.361-33.976V585q0-10.171,5.8-15.768t16.378-5.6V536.372q-24.214,0-37.333,13.936t-13.123,39.368V709.508q0,10.987-8.036,16.989t-22.481,6v27.263Zm80.973,200.2V932.694q-10.581,0-16.378-5.595t-5.8-15.971V782.954q0-23.193-15.361-35.807t-43.436-12.614V761.8q14.442,0,22.481,6.612t8.036,18.413V908.89q0,24.414,13.123,37.74t37.333,13.326h0Z"/>
  <path id="Ezeiru" class="cls-1" d="M1007.63,850.88H916.8V795.115h95.179V774.368H893.051V957H1013.43l3.13-20.747H916.8V871.628h90.829V850.88ZM1035.73,957h102.74l3.71-19.309h-79.11l75.48-94.506V823.892h-98.99V843.2h72.8l-76.63,95.216V957Zm237.7-62.376a108.611,108.611,0,0,0,.36-11.041c0-28.393-14.07-62.841-57.01-62.841-40.46,0-60.4,31.544-60.4,71.126h0c0,34.267,17.07,68.282,58.92,68.282,36.47,0,50.75-22.755,55.99-39.8h-23.15c-4.26,9.74-11.08,20.585-32.13,20.585-22.6,0-36.22-19.234-36.39-46.31h93.81Zm-93.02-16.2h0c2.33-23.193,12.62-39.49,36.03-39.49,22.75,0,33.77,17.593,34.03,39.49h-70.06ZM1304.19,957h22.98V823.892h-22.98V957Zm0-164h22.98V764.283h-22.98V793Zm62.22,164h22.97V892.376c0-33.654,17.54-47.906,44.84-48.721V820.742c-22,.679-37.87,12.305-44.84,30.319,0-12.988-.35-23.433-0.71-27.169h-22.53c0.1,7.082.27,17.554,0.27,36.165V957Zm197.38-133.108h-22.98v69.414c0,33.261-9.45,46.824-33.92,46.824-22.08,0-27.56-16.128-27.56-33.617V823.892h-22.81V911.43c0,37.559,21.55,48.72,43.98,48.72,20.94,0,33.77-8.362,40.31-23.106,0.09,8.346.35,16.451,0.88,19.956h22.36c-0.09-7.869-.26-25.834-0.26-38.789V823.892Z"/>
  <path id="_2" data-name="}" class="cls-1" d="M1664.24,759.761V732.5q-14.445,0-22.48-6t-8.04-16.989V589.676q0-25.43-13.12-39.368t-37.33-13.936v27.262q10.575,0,16.37,5.6t5.8,15.768V713.781q0,21.972,15.36,33.976t43.44,12h0Zm-80.97,200.2q24.21,0,37.33-13.326t13.12-37.74V786.82q0-11.8,8.04-18.413t22.48-6.612V734.533q-28.08,0-43.44,12.614t-15.36,35.807V911.128q0,10.375-5.8,15.971t-16.37,5.595v27.262Z"/>
</svg>
